# Wavefront OBJ file automatically generated by Tiled2Unity

# Vertices (Count = 318)
v -6 -8 0
v -7 -8 0
v -7 -7 0
v -6 -7 0
v -3 -10 0
v -4 -10 0
v -4 -9 0
v -3 -9 0
v -5 -10 0
v -5 -9 0
v -6 -10 0
v -6 -9 0
v -7 -10 0
v -7 -9 0
v -8 -19 0
v -9 -19 0
v -9 -18 0
v -8 -18 0
v -7 -20 0
v -8 -20 0
v -7 -19 0
v -6 -21 0
v -7 -21 0
v -6 -20 0
v -8 -8 0
v -8 -7 0
v -8 -9 0
v -8 -10 0
v -6 -13 0
v -7 -13 0
v -7 -12 0
v -6 -12 0
v -6 -17 0
v -7 -17 0
v -7 -16 0
v -6 -16 0
v 0 -7 0
v -1 -7 0
v -1 -6 0
v 0 -6 0
v -2 -7 0
v -2 -6 0
v -3 -7 0
v -3 -6 0
v -4 -7 0
v -4 -6 0
v -5 -7 0
v -5 -6 0
v -6 -6 0
v -7 -6 0
v -9 -8 0
v -9 -7 0
v -10 -8 0
v -10 -7 0
v -11 -8 0
v -11 -7 0
v -12 -8 0
v -12 -7 0
v -13 -8 0
v -13 -7 0
v -14 -8 0
v -14 -7 0
v -14 -9 0
v -15 -9 0
v -15 -8 0
v 0 -10 0
v -1 -10 0
v -1 -9 0
v 0 -9 0
v -2 -10 0
v -2 -9 0
v -14 -10 0
v -15 -10 0
v 0 -11 0
v -1 -11 0
v -2 -11 0
v -3 -11 0
v -14 -11 0
v -15 -11 0
v 0 -12 0
v -1 -12 0
v -2 -12 0
v -3 -12 0
v -15 -12 0
v -16 -12 0
v -16 -11 0
v -17 -12 0
v -17 -11 0
v -18 -12 0
v -18 -11 0
v -19 -12 0
v -19 -11 0
v 0 -13 0
v -1 -13 0
v -2 -13 0
v -3 -13 0
v -5 -13 0
v -5 -12 0
v -8 -13 0
v -8 -12 0
v -9 -13 0
v -9 -12 0
v 0 -14 0
v -1 -14 0
v -2 -14 0
v -3 -14 0
v -4 -14 0
v -5 -14 0
v -4 -13 0
v -6 -14 0
v -7 -14 0
v -9 -14 0
v -10 -14 0
v -10 -13 0
v -11 -14 0
v -11 -13 0
v -12 -14 0
v -12 -13 0
v -18 -14 0
v -19 -14 0
v -19 -13 0
v -18 -13 0
v -20 -14 0
v -20 -13 0
v 0 -15 0
v -1 -15 0
v -2 -15 0
v -3 -15 0
v -6 -15 0
v -7 -15 0
v -12 -15 0
v -13 -15 0
v -13 -14 0
v 0 -16 0
v -1 -16 0
v -2 -16 0
v -3 -16 0
v -13 -16 0
v -14 -16 0
v -14 -15 0
v 0 -17 0
v -1 -17 0
v -2 -17 0
v -3 -17 0
v -4 -17 0
v -4 -16 0
v -5 -17 0
v -5 -16 0
v -8 -17 0
v -8 -16 0
v -14 -17 0
v -15 -17 0
v -15 -16 0
v -16 -17 0
v -16 -16 0
v -17 -17 0
v -17 -16 0
v -18 -17 0
v -18 -16 0
v -19 -17 0
v -19 -16 0
v -20 -17 0
v -20 -16 0
v 0 -18 0
v -1 -18 0
v -2 -18 0
v -3 -18 0
v 0 -19 0
v -1 -19 0
v -2 -19 0
v -3 -19 0
v 0 -20 0
v -1 -20 0
v -2 -20 0
v -3 -20 0
v -6 -19 0
v 0 -21 0
v -1 -21 0
v -2 -21 0
v -3 -21 0
v -5 -21 0
v -5 -20 0
v -9 -21 0
v -10 -21 0
v -10 -20 0
v -9 -20 0
v -11 -21 0
v -11 -20 0
v -12 -21 0
v -12 -20 0
v 0 -22 0
v -1 -22 0
v -2 -22 0
v -3 -22 0
v -4 -22 0
v -5 -22 0
v -4 -21 0
v -9 -22 0
v -10 -22 0
v -11 -22 0
v -12 -22 0
v 0 -23 0
v -1 -23 0
v -2 -23 0
v -3 -23 0
v -9 -23 0
v -10 -23 0
v -11 -23 0
v -12 -23 0
v -19 -23 0
v -20 -23 0
v -20 -22 0
v -19 -22 0
v 0 -24 0
v -1 -24 0
v -2 -24 0
v -3 -24 0
v -4 -24 0
v -4 -23 0
v -5 -24 0
v -5 -23 0
v -6 -24 0
v -6 -23 0
v -7 -24 0
v -7 -23 0
v -8 -24 0
v -8 -23 0
v -9 -24 0
v -10 -24 0
v -11 -24 0
v -12 -24 0
v -13 -24 0
v -13 -23 0
v -14 -24 0
v -14 -23 0
v -15 -24 0
v -15 -23 0
v -16 -24 0
v -16 -23 0
v -17 -24 0
v -17 -23 0
v -19 -24 0
v -20 -24 0
v -19 -25 0
v -20 -25 0
v -16 -26 0
v -17 -26 0
v -17 -25 0
v -16 -25 0
v -18 -26 0
v -18 -25 0
v -19 -26 0
v -10 -27 0
v -11 -27 0
v -11 -26 0
v -10 -26 0
v -12 -27 0
v -13 -27 0
v -13 -26 0
v -12 -26 0
v -15 -27 0
v -16 -27 0
v -15 -26 0
v -5 -28 0
v -6 -28 0
v -6 -27 0
v -5 -27 0
v -7 -28 0
v -7 -27 0
v -8 -28 0
v -8 -27 0
v -9 -28 0
v -9 -27 0
v -4 -29 0
v -5 -29 0
v -4 -28 0
v -6 -29 0
v -7 -29 0
v -8 -29 0
v -9 -29 0
v 0 -30 0
v -1 -30 0
v -1 -29 0
v 0 -29 0
v -2 -30 0
v -2 -29 0
v -3 -30 0
v -3 -29 0
v -4 -30 0
v -5 -30 0
v -6 -30 0
v -7 -30 0
v -8 -30 0
v -9 -30 0
v -10 -30 0
v -10 -29 0
v -11 -30 0
v -11 -29 0
v -12 -30 0
v -12 -29 0
v -13 -30 0
v -13 -29 0
v -14 -30 0
v -14 -29 0
v -15 -30 0
v -15 -29 0
v -16 -30 0
v -16 -29 0
v -17 -30 0
v -17 -29 0
v -18 -30 0
v -18 -29 0
v -19 -30 0
v -19 -29 0
v -20 -30 0
v -20 -29 0
v -8 -6 0
v -20 -26 0

# Texture cooridinates (Count = 107)
vt 0.5982529 0.006333232
vt 0.6976972 0.006333232
vt 0.6976972 0.2048469
vt 0.5982529 0.2048469
vt 0.3986318 1.000122
vt 0.3986318 0.8011202
vt 0.4985645 0.8011202
vt 0.4985645 1.000122
vt 0.4985645 0.4036046
vt 0.4985645 0.6026065
vt 0.3986318 0.6026065
vt 0.3986318 0.4036046
vt 0.2991875 0.4038488
vt 0.3986318 0.4038488
vt 0.3986318 0.6023624
vt 0.2991875 0.6023624
vt 0.5982529 0.205091
vt 0.6976972 0.205091
vt 0.6976972 0.4036046
vt 0.5982529 0.4036046
vt 0.8323718 0.8013643
vt 0.9153526 0.8013643
vt 0.9153526 0.9998779
vt 0.8323718 0.9998779
vt 0.4994719 0.006333232
vt 0.5824527 0.006333232
vt 0.5824527 0.2048469
vt 0.4994719 0.2048469
vt 0.3330219 0.4038488
vt 0.4160028 0.4038488
vt 0.4160028 0.6023624
vt 0.3330219 0.6023624
vt 0.9985775 0.6023624
vt 0.9155967 0.6023624
vt 0.9155967 0.4038488
vt 0.9985775 0.4038488
vt 0.7976298 0.4036046
vt 0.7976298 0.6026065
vt 0.6976972 0.6026065
vt 0.398876 0.8013643
vt 0.4983203 0.8013643
vt 0.4983203 0.9998779
vt 0.398876 0.9998779
vt 0.199499 0.8013643
vt 0.2989433 0.8013643
vt 0.2989433 0.9998779
vt 0.199499 0.9998779
vt 0.199499 0.006333232
vt 0.2989433 0.006333232
vt 0.2989433 0.2048469
vt 0.199499 0.2048469
vt 0.398876 0.4038488
vt 0.4983203 0.4038488
vt 0.4983203 0.6023624
vt 0.398876 0.6023624
vt 0.2991875 0.8013643
vt 0.3986318 0.8013643
vt 0.3986318 0.9998779
vt 0.2991875 0.9998779
vt 0.398876 0.8011202
vt 0.398876 1.000122
vt 0.2989433 1.000122
vt 0.2989433 0.8011202
vt 0.6979414 0.4038488
vt 0.7973857 0.4038488
vt 0.7973857 0.6023624
vt 0.6979414 0.6023624
vt 0.5982529 0.4038488
vt 0.6976972 0.4038488
vt 0.6976972 0.6023624
vt 0.5982529 0.6023624
vt -0.0001220703 1.000122
vt -0.0001220703 0.8011202
vt 0.09981054 0.8011202
vt 0.09981054 1.000122
vt 0.1992549 0.205091
vt 0.1992549 0.006089091
vt 0.2991875 0.006089091
vt 0.2991875 0.205091
vt 0.0001220703 0.8013643
vt 0.0995664 0.8013643
vt 0.0995664 0.9998779
vt 0.0001220703 0.9998779
vt 0.199499 0.4038488
vt 0.2989433 0.4038488
vt 0.2989433 0.6023624
vt 0.199499 0.6023624
vt 0.09981054 0.4038488
vt 0.1992549 0.4038488
vt 0.1992549 0.6023624
vt 0.09981054 0.6023624
vt 0.9155967 0.8011202
vt 0.9155967 1.000122
vt 0.8321276 1.000122
vt 0.8321276 0.8011202
vt 0.8323718 0.006333232
vt 0.9153526 0.006333232
vt 0.9153526 0.2048469
vt 0.8323718 0.2048469
vt 0.9155967 0.006333232
vt 0.9985775 0.006333232
vt 0.9985775 0.2048469
vt 0.9155967 0.2048469
vt 0.7489026 1.000122
vt 0.7489026 0.8011202
vt 0.8323718 0.8011202
vt 0.8323718 1.000122

# Normal
vn 0 0 -1

# Groups (Count = 2)

g mesh_0001
f 1/1/1 2/2/1 3/3/1 4/4/1
f 5/5/1 6/6/1 7/7/1 8/8/1
f 6/9/1 9/10/1 10/11/1 7/12/1
f 9/9/1 11/10/1 12/11/1 10/12/1
f 11/9/1 13/10/1 14/11/1 12/12/1
f 15/13/1 16/14/1 17/15/1 18/16/1
f 19/13/1 20/14/1 15/15/1 21/16/1
f 22/17/1 23/18/1 19/19/1 24/20/1

g mesh_0002
f 2/21/1 25/22/1 26/23/1 3/24/1
f 12/25/1 14/26/1 2/27/1 1/28/1
f 14/29/1 27/30/1 25/31/1 2/32/1
f 13/23/1 28/24/1 27/21/1 14/22/1
f 29/33/1 30/34/1 31/35/1 32/36/1
f 33/35/1 34/36/1 35/33/1 36/34/1

g mesh_0003
f 37/37/1 38/38/1 39/39/1 40/19/1
f 38/37/1 41/38/1 42/39/1 39/19/1
f 41/37/1 43/38/1 44/39/1 42/19/1
f 43/37/1 45/38/1 46/39/1 44/19/1
f 45/37/1 47/38/1 48/39/1 46/19/1
f 47/37/1 4/38/1 49/39/1 48/19/1
f 4/11/1 3/12/1 50/9/1 49/10/1
f 25/9/1 51/10/1 52/11/1 26/12/1
f 51/9/1 53/10/1 54/11/1 52/12/1
f 53/9/1 55/10/1 56/11/1 54/12/1
f 55/9/1 57/10/1 58/11/1 56/12/1
f 57/9/1 59/10/1 60/11/1 58/12/1
f 59/7/1 61/8/1 62/5/1 60/6/1
f 63/40/1 64/41/1 65/42/1 61/43/1
f 66/44/1 67/45/1 68/46/1 69/47/1
f 67/44/1 70/45/1 71/46/1 68/47/1
f 70/48/1 5/49/1 8/50/1 71/51/1
f 72/52/1 73/53/1 64/54/1 63/55/1
f 74/44/1 75/45/1 67/46/1 66/47/1
f 75/44/1 76/45/1 70/46/1 67/47/1
f 76/48/1 77/49/1 5/50/1 70/51/1
f 78/56/1 79/57/1 73/58/1 72/59/1
f 80/44/1 81/45/1 75/46/1 74/47/1
f 81/44/1 82/45/1 76/46/1 75/47/1
f 82/48/1 83/49/1 77/50/1 76/51/1
f 84/60/1 85/61/1 86/62/1 79/63/1
f 85/9/1 87/10/1 88/11/1 86/12/1
f 87/9/1 89/10/1 90/11/1 88/12/1
f 89/7/1 91/8/1 92/5/1 90/6/1
f 93/44/1 94/45/1 81/46/1 80/47/1
f 94/44/1 95/45/1 82/46/1 81/47/1
f 95/48/1 96/49/1 83/50/1 82/51/1
f 97/60/1 29/61/1 32/62/1 98/63/1
f 29/9/1 30/10/1 31/11/1 32/12/1
f 30/9/1 99/10/1 100/11/1 31/12/1
f 99/62/1 101/63/1 102/60/1 100/61/1
f 103/44/1 104/45/1 94/46/1 93/47/1
f 104/44/1 105/45/1 95/46/1 94/47/1
f 105/48/1 106/49/1 96/50/1 95/51/1
f 107/13/1 108/14/1 97/15/1 109/16/1
f 110/64/1 111/65/1 30/66/1 29/67/1
f 112/60/1 113/61/1 114/62/1 101/63/1
f 113/9/1 115/10/1 116/11/1 114/12/1
f 115/62/1 117/63/1 118/60/1 116/61/1
f 119/60/1 120/61/1 121/62/1 122/63/1
f 120/9/1 123/10/1 124/11/1 121/12/1
f 125/44/1 126/45/1 104/46/1 103/47/1
f 126/44/1 127/45/1 105/46/1 104/47/1
f 127/48/1 128/49/1 106/50/1 105/51/1
f 129/64/1 130/65/1 111/66/1 110/67/1
f 131/13/1 132/14/1 133/15/1 117/16/1
f 134/44/1 135/45/1 126/46/1 125/47/1
f 135/44/1 136/45/1 127/46/1 126/47/1
f 136/48/1 137/49/1 128/50/1 127/51/1
f 36/64/1 35/65/1 130/66/1 129/67/1
f 138/13/1 139/14/1 140/15/1 132/16/1
f 141/44/1 142/45/1 135/46/1 134/47/1
f 142/44/1 143/45/1 136/46/1 135/47/1
f 143/48/1 144/49/1 137/50/1 136/51/1
f 144/60/1 145/61/1 146/62/1 137/63/1
f 145/37/1 147/38/1 148/39/1 146/19/1
f 147/9/1 33/10/1 36/11/1 148/12/1
f 33/9/1 34/10/1 35/11/1 36/12/1
f 34/7/1 149/8/1 150/5/1 35/6/1
f 151/60/1 152/61/1 153/62/1 139/63/1
f 152/9/1 154/10/1 155/11/1 153/12/1
f 154/9/1 156/10/1 157/11/1 155/12/1
f 156/9/1 158/10/1 159/11/1 157/12/1
f 158/9/1 160/10/1 161/11/1 159/12/1
f 160/9/1 162/10/1 163/11/1 161/12/1
f 164/44/1 165/45/1 142/46/1 141/47/1
f 165/44/1 166/45/1 143/46/1 142/47/1
f 166/48/1 167/49/1 144/50/1 143/51/1
f 168/44/1 169/45/1 165/46/1 164/47/1
f 169/44/1 170/45/1 166/46/1 165/47/1
f 170/48/1 171/49/1 167/50/1 166/51/1
f 172/44/1 173/45/1 169/46/1 168/47/1
f 173/44/1 174/45/1 170/46/1 169/47/1
f 174/48/1 175/49/1 171/50/1 170/51/1
f 24/68/1 19/69/1 21/70/1 176/71/1
f 177/44/1 178/45/1 173/46/1 172/47/1
f 178/44/1 179/45/1 174/46/1 173/47/1
f 179/48/1 180/49/1 175/50/1 174/51/1
f 181/60/1 22/61/1 24/62/1 182/63/1
f 22/7/1 23/8/1 19/5/1 24/6/1
f 183/72/1 184/73/1 185/74/1 186/75/1
f 184/76/1 187/77/1 188/78/1 185/79/1
f 187/80/1 189/81/1 190/82/1 188/83/1
f 191/44/1 192/45/1 178/46/1 177/47/1
f 192/44/1 193/45/1 179/46/1 178/47/1
f 193/48/1 194/49/1 180/50/1 179/51/1
f 195/13/1 196/14/1 181/15/1 197/16/1
f 198/84/1 199/85/1 184/86/1 183/87/1
f 199/44/1 200/45/1 187/46/1 184/47/1
f 200/48/1 201/49/1 189/50/1 187/51/1
f 202/44/1 203/45/1 192/46/1 191/47/1
f 203/44/1 204/45/1 193/46/1 192/47/1
f 204/48/1 205/49/1 194/50/1 193/51/1
f 206/84/1 207/85/1 199/86/1 198/87/1
f 207/44/1 208/45/1 200/46/1 199/47/1
f 208/48/1 209/49/1 201/50/1 200/51/1
f 210/40/1 211/41/1 212/42/1 213/43/1
f 214/88/1 215/89/1 203/90/1 202/91/1
f 215/88/1 216/89/1 204/90/1 203/91/1
f 217/9/1 218/10/1 219/11/1 205/12/1
f 218/9/1 220/10/1 221/11/1 219/12/1
f 220/9/1 222/10/1 223/11/1 221/12/1
f 222/9/1 224/10/1 225/11/1 223/12/1
f 224/9/1 226/10/1 227/11/1 225/12/1
f 226/9/1 228/10/1 206/11/1 227/12/1
f 229/88/1 230/89/1 208/90/1 207/91/1
f 231/11/1 232/12/1 233/9/1 209/10/1
f 232/11/1 234/12/1 235/9/1 233/10/1
f 234/11/1 236/12/1 237/9/1 235/10/1
f 236/11/1 238/12/1 239/9/1 237/10/1
f 238/7/1 240/8/1 241/5/1 239/6/1
f 242/52/1 243/53/1 211/54/1 210/55/1
f 244/52/1 245/53/1 243/54/1 242/55/1
f 246/60/1 247/61/1 248/62/1 249/63/1
f 247/9/1 250/10/1 251/11/1 248/12/1
f 250/9/1 252/10/1 244/11/1 251/12/1
f 253/13/1 254/14/1 255/15/1 256/16/1
f 257/13/1 258/14/1 259/15/1 260/16/1
f 261/13/1 262/14/1 246/15/1 263/16/1
f 264/72/1 265/73/1 266/74/1 267/75/1
f 265/76/1 268/77/1 269/78/1 266/79/1
f 268/76/1 270/77/1 271/78/1 269/79/1
f 270/80/1 272/81/1 273/82/1 271/83/1
f 274/72/1 275/73/1 264/74/1 276/75/1
f 275/44/1 277/45/1 265/46/1 264/47/1
f 277/44/1 278/45/1 268/46/1 265/47/1
f 278/44/1 279/45/1 270/46/1 268/47/1
f 279/48/1 280/49/1 272/50/1 270/51/1
f 281/76/1 282/77/1 283/78/1 284/79/1
f 282/76/1 285/77/1 286/78/1 283/79/1
f 285/76/1 287/77/1 288/78/1 286/79/1
f 287/76/1 289/77/1 274/78/1 288/79/1
f 290/44/1 291/45/1 277/46/1 275/47/1
f 291/44/1 292/45/1 278/46/1 277/47/1
f 292/44/1 293/45/1 279/46/1 278/47/1
f 293/48/1 294/49/1 280/50/1 279/51/1
f 294/68/1 295/69/1 296/70/1 280/71/1
f 295/68/1 297/69/1 298/70/1 296/71/1
f 297/68/1 299/69/1 300/70/1 298/71/1
f 299/68/1 301/69/1 302/70/1 300/71/1
f 301/68/1 303/69/1 304/70/1 302/71/1
f 303/68/1 305/69/1 306/70/1 304/71/1
f 305/68/1 307/69/1 308/70/1 306/71/1
f 307/68/1 309/69/1 310/70/1 308/71/1
f 309/68/1 311/69/1 312/70/1 310/71/1
f 311/68/1 313/69/1 314/70/1 312/71/1
f 313/68/1 315/69/1 316/70/1 314/71/1

g mesh_0004
f 3/92/1 26/93/1 317/94/1 50/95/1
f 2/94/1 25/95/1 26/92/1 3/93/1
f 216/96/1 217/97/1 205/98/1 204/99/1
f 228/100/1 229/101/1 207/102/1 206/103/1
f 230/96/1 231/97/1 209/98/1 208/99/1
f 252/23/1 318/24/1 245/21/1 244/22/1
f 289/104/1 290/105/1 275/106/1 274/107/1

