# Wavefront OBJ file automatically generated by Tiled2Unity

# Vertices (Count = 368)
v -53.76 -7.68 0
v -55.68 -7.68 0
v -55.68 -5.76 0
v -53.76 -5.76 0
v -57.6 -7.68 0
v -57.6 -5.76 0
v -53.76 -9.599999 0
v -55.68 -9.599999 0
v -57.6 -9.599999 0
v -53.76 -11.52 0
v -55.68 -11.52 0
v -57.6 -11.52 0
v -53.76 -13.44 0
v -55.68 -13.44 0
v -57.6 -13.44 0
v -26.88 -15.36 0
v -28.8 -15.36 0
v -28.8 -13.44 0
v -26.88 -13.44 0
v -53.76 -15.36 0
v -55.68 -15.36 0
v -57.6 -15.36 0
v -53.76 -17.28 0
v -55.68 -17.28 0
v -57.6 -17.28 0
v -53.76 -19.2 0
v -55.68 -19.2 0
v -57.6 -19.2 0
v -53.76 -21.12 0
v -55.68 -21.12 0
v -57.6 -21.12 0
v -24.96 -23.04 0
v -26.88 -23.04 0
v -26.88 -21.12 0
v -24.96 -21.12 0
v -53.76 -23.04 0
v -55.68 -23.04 0
v -57.6 -23.04 0
v -53.76 -24.96 0
v -55.68 -24.96 0
v -57.6 -24.96 0
v -53.76 -26.88 0
v -55.68 -26.88 0
v -57.6 -26.88 0
v -53.76 -28.8 0
v -55.68 -28.8 0
v -57.6 -28.8 0
v -53.76 -30.72 0
v -55.68 -30.72 0
v -57.6 -30.72 0
v -53.76 -32.64 0
v -55.68 -32.64 0
v -57.6 -32.64 0
v -53.76 -34.56 0
v -55.68 -34.56 0
v -57.6 -34.56 0
v -53.76 -36.48 0
v -55.68 -36.48 0
v -57.6 -36.48 0
v -53.76 -38.4 0
v -55.68 -38.4 0
v -57.6 -38.4 0
v -34.56 -7.68 0
v -36.48 -7.68 0
v -36.48 -5.76 0
v -34.56 -5.76 0
v -38.4 -7.68 0
v -38.4 -5.76 0
v -40.32 -7.68 0
v -40.32 -5.76 0
v -42.24 -7.68 0
v -42.24 -5.76 0
v -44.16 -7.68 0
v -46.08 -7.68 0
v -46.08 -5.76 0
v -44.16 -5.76 0
v -24.96 -15.36 0
v -24.96 -13.44 0
v -30.72 -15.36 0
v -30.72 -13.44 0
v -32.64 -19.2 0
v -34.56 -19.2 0
v -34.56 -17.28 0
v -32.64 -17.28 0
v -36.48 -19.2 0
v -36.48 -17.28 0
v -38.4 -19.2 0
v -38.4 -17.28 0
v -28.8 -21.12 0
v -30.72 -21.12 0
v -30.72 -19.2 0
v -28.8 -19.2 0
v -32.64 -21.12 0
v -48 -30.72 0
v -49.92 -30.72 0
v -49.92 -28.8 0
v -48 -28.8 0
v -48 -36.48 0
v -49.92 -36.48 0
v -49.92 -34.56 0
v -48 -34.56 0
v -48 -38.4 0
v -49.92 -38.4 0
v -24.96 -17.28 0
v -26.88 -17.28 0
v -24.96 -19.2 0
v -26.88 -19.2 0
v -23.04 -23.04 0
v -23.04 -21.12 0
v -28.8 -23.04 0
v -19.2 -24.96 0
v -21.12 -24.96 0
v -21.12 -23.04 0
v -19.2 -23.04 0
v -17.28 -28.8 0
v -19.2 -28.8 0
v -19.2 -26.88 0
v -17.28 -26.88 0
v -21.12 -28.8 0
v -21.12 -26.88 0
v -23.04 -28.8 0
v -23.04 -26.88 0
v -24.96 -28.8 0
v -24.96 -26.88 0
v -26.88 -28.8 0
v -26.88 -26.88 0
v -28.8 -30.72 0
v -30.72 -30.72 0
v -30.72 -28.8 0
v -28.8 -28.8 0
v -30.72 -34.56 0
v -32.64 -34.56 0
v -32.64 -32.64 0
v -30.72 -32.64 0
v -36.48 -34.56 0
v -38.4 -34.56 0
v -38.4 -32.64 0
v -36.48 -32.64 0
v 0 -38.4 0
v -1.92 -38.4 0
v -1.92 -36.48 0
v 0 -36.48 0
v -3.84 -38.4 0
v -3.84 -36.48 0
v -5.76 -38.4 0
v -5.76 -36.48 0
v -7.68 -38.4 0
v -7.68 -36.48 0
v -9.599999 -38.4 0
v -9.599999 -36.48 0
v -11.52 -38.4 0
v -11.52 -36.48 0
v -13.44 -38.4 0
v -13.44 -36.48 0
v -15.36 -38.4 0
v -15.36 -36.48 0
v -17.28 -38.4 0
v -17.28 -36.48 0
v -19.2 -38.4 0
v -19.2 -36.48 0
v -21.12 -38.4 0
v -21.12 -36.48 0
v -23.04 -38.4 0
v -23.04 -36.48 0
v -24.96 -38.4 0
v -24.96 -36.48 0
v -26.88 -38.4 0
v -26.88 -36.48 0
v -28.8 -38.4 0
v -28.8 -36.48 0
v -30.72 -38.4 0
v -30.72 -36.48 0
v -32.64 -38.4 0
v -32.64 -36.48 0
v -34.56 -38.4 0
v -34.56 -36.48 0
v -36.48 -38.4 0
v -36.48 -36.48 0
v -38.4 -38.4 0
v -38.4 -36.48 0
v -1.92 -34.56 0
v 0 -34.56 0
v -3.84 -34.56 0
v -5.76 -34.56 0
v -7.68 -34.56 0
v -9.599999 -34.56 0
v -11.52 -34.56 0
v -13.44 -34.56 0
v -15.36 -34.56 0
v -17.28 -34.56 0
v -19.2 -34.56 0
v -21.12 -34.56 0
v -23.04 -34.56 0
v -24.96 -34.56 0
v -26.88 -34.56 0
v -28.8 -34.56 0
v -34.56 -34.56 0
v -40.32 -36.48 0
v -40.32 -34.56 0
v -40.32 -38.4 0
v -30.72 -1.92 0
v -32.64 -1.92 0
v -32.64 0 0
v -30.72 0 0
v -48 -1.92 0
v -49.92 -1.92 0
v -49.92 0 0
v -48 0 0
v -30.72 -3.84 0
v -32.64 -3.84 0
v -48 -3.84 0
v -49.92 -3.84 0
v -19.2 -5.76 0
v -21.12 -5.76 0
v -21.12 -3.84 0
v -19.2 -3.84 0
v -23.04 -5.76 0
v -23.04 -3.84 0
v -24.96 -5.76 0
v -24.96 -3.84 0
v -26.88 -5.76 0
v -26.88 -3.84 0
v -28.8 -5.76 0
v -28.8 -3.84 0
v -30.72 -5.76 0
v -32.64 -5.76 0
v -46.08 -3.84 0
v -44.16 -3.84 0
v -48 -5.76 0
v -49.92 -5.76 0
v -51.84 -5.76 0
v -53.76 -3.84 0
v -51.84 -3.84 0
v -55.68 -3.84 0
v -57.6 -3.84 0
v -26.88 -7.68 0
v -28.8 -7.68 0
v -30.72 -7.68 0
v -32.64 -7.68 0
v -48 -7.68 0
v -49.92 -7.68 0
v -51.84 -7.68 0
v -26.88 -9.599999 0
v -28.8 -9.599999 0
v -30.72 -9.599999 0
v -32.64 -9.599999 0
v -44.16 -9.599999 0
v -46.08 -9.599999 0
v -48 -9.599999 0
v -49.92 -9.599999 0
v -51.84 -9.599999 0
v -26.88 -11.52 0
v -28.8 -11.52 0
v -32.64 -11.52 0
v -34.56 -11.52 0
v -34.56 -9.599999 0
v -36.48 -11.52 0
v -36.48 -9.599999 0
v -38.4 -11.52 0
v -38.4 -9.599999 0
v -44.16 -11.52 0
v -46.08 -11.52 0
v -48 -11.52 0
v -49.92 -11.52 0
v -51.84 -11.52 0
v 0 -13.44 0
v -1.92 -13.44 0
v -1.92 -11.52 0
v 0 -11.52 0
v -3.84 -13.44 0
v -3.84 -11.52 0
v -5.76 -13.44 0
v -5.76 -11.52 0
v -7.68 -13.44 0
v -7.68 -11.52 0
v -9.599999 -13.44 0
v -9.599999 -11.52 0
v -11.52 -13.44 0
v -11.52 -11.52 0
v -13.44 -13.44 0
v -13.44 -11.52 0
v -15.36 -13.44 0
v -15.36 -11.52 0
v -17.28 -13.44 0
v -17.28 -11.52 0
v -19.2 -13.44 0
v -19.2 -11.52 0
v -21.12 -13.44 0
v -21.12 -11.52 0
v -23.04 -13.44 0
v -23.04 -11.52 0
v -24.96 -11.52 0
v -38.4 -13.44 0
v -40.32 -13.44 0
v -40.32 -11.52 0
v -44.16 -13.44 0
v -46.08 -13.44 0
v -48 -13.44 0
v -49.92 -13.44 0
v -51.84 -13.44 0
v -38.4 -15.36 0
v -40.32 -15.36 0
v -44.16 -15.36 0
v -46.08 -15.36 0
v -48 -15.36 0
v -49.92 -15.36 0
v -51.84 -15.36 0
v -40.32 -17.28 0
v -42.24 -17.28 0
v -42.24 -15.36 0
v -44.16 -17.28 0
v -46.08 -17.28 0
v -48 -17.28 0
v -49.92 -17.28 0
v -51.84 -17.28 0
v -40.32 -19.2 0
v -42.24 -19.2 0
v -44.16 -19.2 0
v -46.08 -19.2 0
v -48 -19.2 0
v -49.92 -19.2 0
v -51.84 -19.2 0
v -40.32 -21.12 0
v -42.24 -21.12 0
v -44.16 -21.12 0
v -46.08 -21.12 0
v -51.84 -21.12 0
v -40.32 -23.04 0
v -42.24 -23.04 0
v -44.16 -23.04 0
v -46.08 -23.04 0
v -51.84 -23.04 0
v -40.32 -24.96 0
v -42.24 -24.96 0
v -46.08 -24.96 0
v -48 -24.96 0
v -48 -23.04 0
v -51.84 -24.96 0
v -40.32 -26.88 0
v -42.24 -26.88 0
v -46.08 -26.88 0
v -48 -26.88 0
v -51.84 -26.88 0
v -40.32 -28.8 0
v -42.24 -28.8 0
v -46.08 -28.8 0
v -49.92 -26.88 0
v -51.84 -28.8 0
v -40.32 -30.72 0
v -42.24 -30.72 0
v -51.84 -30.72 0
v -40.32 -32.64 0
v -42.24 -32.64 0
v -48 -32.64 0
v -49.92 -32.64 0
v -51.84 -32.64 0
v -51.84 -34.56 0
v -42.24 -36.48 0
v -42.24 -34.56 0
v -44.16 -36.48 0
v -44.16 -34.56 0
v -46.08 -36.48 0
v -46.08 -34.56 0
v -51.84 -36.48 0
v -42.24 -38.4 0
v -44.16 -38.4 0
v -46.08 -38.4 0
v -51.84 -38.4 0

# Texture cooridinates (Count = 84)
vt 0.166572 0.8013643
vt 0.2495528 0.8013643
vt 0.2495528 0.9998779
vt 0.166572 0.9998779
vt 0.249797 0.8013643
vt 0.3327778 0.8013643
vt 0.3327778 0.9998779
vt 0.249797 0.9998779
vt 0.4160028 0.9998779
vt 0.3330219 0.9998779
vt 0.3330219 0.8013643
vt 0.4160028 0.8013643
vt 0.3330219 0.8011202
vt 0.3330219 1.000122
vt 0.2495528 1.000122
vt 0.2495528 0.8011202
vt 0.0001220703 0.006333232
vt 0.0831029 0.006333232
vt 0.0831029 0.2048469
vt 0.0001220703 0.2048469
vt 0.4162469 0.8011202
vt 0.4162469 1.000122
vt 0.3327778 1.000122
vt 0.3327778 0.8011202
vt 0.3330219 0.4038488
vt 0.4160028 0.4038488
vt 0.4160028 0.6023624
vt 0.3330219 0.6023624
vt 0.4162469 0.4036046
vt 0.4162469 0.6026065
vt 0.3327778 0.6026065
vt 0.3327778 0.4036046
vt 0.4994719 0.205091
vt 0.5824527 0.205091
vt 0.5824527 0.4036046
vt 0.4994719 0.4036046
vt 0.0001220703 0.8013643
vt 0.0831029 0.8013643
vt 0.0831029 0.9998779
vt 0.0001220703 0.9998779
vt 0.0001220703 0.4038488
vt 0.0831029 0.4038488
vt 0.0831029 0.6023624
vt 0.0001220703 0.6023624
vt 0.8323718 0.8013643
vt 0.9153526 0.8013643
vt 0.9153526 0.9998779
vt 0.8323718 0.9998779
vt 0.5826969 0.4038488
vt 0.6656777 0.4038488
vt 0.6656777 0.6023624
vt 0.5826969 0.6023624
vt 0.249797 0.4038488
vt 0.3327778 0.4038488
vt 0.3327778 0.6023624
vt 0.249797 0.6023624
vt 0.9155967 0.8013643
vt 0.9985775 0.8013643
vt 0.9985775 0.9998779
vt 0.9155967 0.9998779
vt 0.7491468 0.4038488
vt 0.8321276 0.4038488
vt 0.8321276 0.6023624
vt 0.7491468 0.6023624
vt 0.9155967 1.000122
vt 0.9155967 0.8011202
vt 0.8321276 0.8011202
vt 0.8321276 1.000122
vt 0.4994719 0.4038488
vt 0.5824527 0.4038488
vt 0.5824527 0.6023624
vt 0.4994719 0.6023624
vt -0.0001220703 1.000122
vt -0.0001220703 0.8011202
vt 0.08334704 0.8011202
vt 0.08334704 1.000122
vt 0.08334704 0.8013643
vt 0.1663279 0.8013643
vt 0.1663279 0.9998779
vt 0.08334704 0.9998779
vt 0.166572 0.4038488
vt 0.2495528 0.4038488
vt 0.2495528 0.6023624
vt 0.166572 0.6023624

# Normal
vn 0 0 -1

# Groups (Count = 5)

g mesh_0001
f 1/1/1 2/2/1 3/3/1 4/4/1
f 2/1/1 5/2/1 6/3/1 3/4/1
f 7/1/1 8/2/1 2/3/1 1/4/1
f 8/1/1 9/2/1 5/3/1 2/4/1
f 10/1/1 11/2/1 8/3/1 7/4/1
f 11/1/1 12/2/1 9/3/1 8/4/1
f 13/1/1 14/2/1 11/3/1 10/4/1
f 14/1/1 15/2/1 12/3/1 11/4/1
f 16/5/1 17/6/1 18/7/1 19/8/1
f 20/1/1 21/2/1 14/3/1 13/4/1
f 21/1/1 22/2/1 15/3/1 14/4/1
f 23/1/1 24/2/1 21/3/1 20/4/1
f 24/1/1 25/2/1 22/3/1 21/4/1
f 26/1/1 27/2/1 24/3/1 23/4/1
f 27/1/1 28/2/1 25/3/1 24/4/1
f 29/1/1 30/2/1 27/3/1 26/4/1
f 30/1/1 31/2/1 28/3/1 27/4/1
f 32/9/1 33/10/1 34/11/1 35/12/1
f 36/1/1 37/2/1 30/3/1 29/4/1
f 37/1/1 38/2/1 31/3/1 30/4/1
f 39/1/1 40/2/1 37/3/1 36/4/1
f 40/1/1 41/2/1 38/3/1 37/4/1
f 42/1/1 43/2/1 40/3/1 39/4/1
f 43/1/1 44/2/1 41/3/1 40/4/1
f 45/1/1 46/2/1 43/3/1 42/4/1
f 46/1/1 47/2/1 44/3/1 43/4/1
f 48/1/1 49/2/1 46/3/1 45/4/1
f 49/1/1 50/2/1 47/3/1 46/4/1
f 51/1/1 52/2/1 49/3/1 48/4/1
f 52/1/1 53/2/1 50/3/1 49/4/1
f 54/1/1 55/2/1 52/3/1 51/4/1
f 55/1/1 56/2/1 53/3/1 52/4/1
f 57/1/1 58/2/1 55/3/1 54/4/1
f 58/1/1 59/2/1 56/3/1 55/4/1
f 60/1/1 61/2/1 58/3/1 57/4/1
f 61/1/1 62/2/1 59/3/1 58/4/1

g mesh_0002
f 63/13/1 64/14/1 65/15/1 66/16/1
f 64/17/1 67/18/1 68/19/1 65/20/1
f 67/17/1 69/18/1 70/19/1 68/20/1
f 69/17/1 71/18/1 72/19/1 70/20/1
f 73/21/1 74/22/1 75/23/1 76/24/1
f 77/25/1 16/26/1 19/27/1 78/28/1
f 16/29/1 17/30/1 18/31/1 19/32/1
f 17/21/1 79/22/1 80/23/1 18/24/1
f 81/13/1 82/14/1 83/15/1 84/16/1
f 82/29/1 85/30/1 86/31/1 83/32/1
f 85/15/1 87/16/1 88/13/1 86/14/1
f 89/13/1 90/14/1 91/15/1 92/16/1
f 90/15/1 93/16/1 81/13/1 91/14/1
f 32/9/1 33/10/1 34/11/1 35/12/1
f 94/33/1 95/34/1 96/35/1 97/36/1
f 98/37/1 99/38/1 100/39/1 101/40/1
f 102/41/1 103/42/1 99/43/1 98/44/1

g mesh_0003
f 77/45/1 16/46/1 19/47/1 78/48/1
f 104/49/1 105/50/1 16/51/1 77/52/1
f 106/49/1 107/50/1 105/51/1 104/52/1
f 35/49/1 34/50/1 107/51/1 106/52/1
f 108/13/1 32/14/1 35/15/1 109/16/1
f 32/29/1 33/30/1 34/31/1 35/32/1
f 33/21/1 110/22/1 89/23/1 34/24/1
f 111/53/1 112/54/1 113/55/1 114/56/1
f 115/13/1 116/14/1 117/15/1 118/16/1
f 116/29/1 119/30/1 120/31/1 117/32/1
f 119/29/1 121/30/1 122/31/1 120/32/1
f 121/29/1 123/30/1 124/31/1 122/32/1
f 123/21/1 125/22/1 126/23/1 124/24/1
f 127/53/1 128/54/1 129/55/1 130/56/1
f 131/53/1 132/54/1 133/55/1 134/56/1
f 135/53/1 136/54/1 137/55/1 138/56/1
f 139/57/1 140/58/1 141/59/1 142/60/1
f 140/57/1 143/58/1 144/59/1 141/60/1
f 143/57/1 145/58/1 146/59/1 144/60/1
f 145/57/1 147/58/1 148/59/1 146/60/1
f 147/57/1 149/58/1 150/59/1 148/60/1
f 149/57/1 151/58/1 152/59/1 150/60/1
f 151/57/1 153/58/1 154/59/1 152/60/1
f 153/57/1 155/58/1 156/59/1 154/60/1
f 155/57/1 157/58/1 158/59/1 156/60/1
f 157/57/1 159/58/1 160/59/1 158/60/1
f 159/57/1 161/58/1 162/59/1 160/60/1
f 161/57/1 163/58/1 164/59/1 162/60/1
f 163/57/1 165/58/1 166/59/1 164/60/1
f 165/57/1 167/58/1 168/59/1 166/60/1
f 167/57/1 169/58/1 170/59/1 168/60/1
f 169/57/1 171/58/1 172/59/1 170/60/1
f 171/57/1 173/58/1 174/59/1 172/60/1
f 173/57/1 175/58/1 176/59/1 174/60/1
f 175/57/1 177/58/1 178/59/1 176/60/1
f 177/57/1 179/58/1 180/59/1 178/60/1

g mesh_0004
f 142/61/1 141/62/1 181/63/1 182/64/1
f 141/61/1 144/62/1 183/63/1 181/64/1
f 144/61/1 146/62/1 184/63/1 183/64/1
f 146/61/1 148/62/1 185/63/1 184/64/1
f 148/61/1 150/62/1 186/63/1 185/64/1
f 150/61/1 152/62/1 187/63/1 186/64/1
f 152/61/1 154/62/1 188/63/1 187/64/1
f 154/61/1 156/62/1 189/63/1 188/64/1
f 156/61/1 158/62/1 190/63/1 189/64/1
f 158/61/1 160/62/1 191/63/1 190/64/1
f 160/61/1 162/62/1 192/63/1 191/64/1
f 162/61/1 164/62/1 193/63/1 192/64/1
f 164/61/1 166/62/1 194/63/1 193/64/1
f 166/61/1 168/62/1 195/63/1 194/64/1
f 168/61/1 170/62/1 196/63/1 195/64/1
f 170/61/1 172/62/1 131/63/1 196/64/1
f 172/61/1 174/62/1 132/63/1 131/64/1
f 174/61/1 176/62/1 197/63/1 132/64/1
f 176/61/1 178/62/1 135/63/1 197/64/1
f 178/61/1 180/62/1 136/63/1 135/64/1
f 180/61/1 198/62/1 199/63/1 136/64/1
f 139/61/1 140/62/1 141/63/1 142/64/1
f 140/61/1 143/62/1 144/63/1 141/64/1
f 143/61/1 145/62/1 146/63/1 144/64/1
f 145/61/1 147/62/1 148/63/1 146/64/1
f 147/61/1 149/62/1 150/63/1 148/64/1
f 149/61/1 151/62/1 152/63/1 150/64/1
f 151/61/1 153/62/1 154/63/1 152/64/1
f 153/61/1 155/62/1 156/63/1 154/64/1
f 155/61/1 157/62/1 158/63/1 156/64/1
f 157/61/1 159/62/1 160/63/1 158/64/1
f 159/61/1 161/62/1 162/63/1 160/64/1
f 161/61/1 163/62/1 164/63/1 162/64/1
f 163/61/1 165/62/1 166/63/1 164/64/1
f 165/61/1 167/62/1 168/63/1 166/64/1
f 167/61/1 169/62/1 170/63/1 168/64/1
f 169/61/1 171/62/1 172/63/1 170/64/1
f 171/61/1 173/62/1 174/63/1 172/64/1
f 173/61/1 175/62/1 176/63/1 174/64/1
f 175/61/1 177/62/1 178/63/1 176/64/1
f 177/61/1 179/62/1 180/63/1 178/64/1
f 179/61/1 200/62/1 198/63/1 180/64/1

g mesh_0005
f 201/25/1 202/26/1 203/27/1 204/28/1
f 205/25/1 206/26/1 207/27/1 208/28/1
f 209/25/1 210/26/1 202/27/1 201/28/1
f 211/25/1 212/26/1 206/27/1 205/28/1
f 213/13/1 214/14/1 215/15/1 216/16/1
f 214/29/1 217/30/1 218/31/1 215/32/1
f 217/29/1 219/30/1 220/31/1 218/32/1
f 219/29/1 221/30/1 222/31/1 220/32/1
f 221/46/1 223/45/1 224/48/1 222/47/1
f 225/25/1 226/26/1 210/27/1 209/28/1
f 76/11/1 75/12/1 227/9/1 228/10/1
f 229/25/1 230/26/1 212/27/1 211/28/1
f 231/65/1 4/66/1 232/67/1 233/68/1
f 4/29/1 3/30/1 234/31/1 232/32/1
f 3/29/1 6/30/1 235/31/1 234/32/1
f 236/25/1 237/26/1 223/27/1 221/28/1
f 238/25/1 239/26/1 226/27/1 225/28/1
f 71/17/1 73/18/1 76/19/1 72/20/1
f 73/25/1 74/26/1 75/27/1 76/28/1
f 240/25/1 241/26/1 230/27/1 229/28/1
f 242/25/1 1/26/1 4/27/1 231/28/1
f 243/25/1 244/26/1 237/27/1 236/28/1
f 245/5/1 246/6/1 239/7/1 238/8/1
f 247/25/1 248/26/1 74/27/1 73/28/1
f 249/25/1 250/26/1 241/27/1 240/28/1
f 251/25/1 7/26/1 1/27/1 242/28/1
f 252/25/1 253/26/1 244/27/1 243/28/1
f 254/13/1 255/14/1 256/15/1 246/16/1
f 255/29/1 257/30/1 258/31/1 256/32/1
f 257/21/1 259/22/1 260/23/1 258/24/1
f 261/25/1 262/26/1 248/27/1 247/28/1
f 263/25/1 264/26/1 250/27/1 249/28/1
f 265/25/1 10/26/1 7/27/1 251/28/1
f 266/29/1 267/30/1 268/31/1 269/32/1
f 267/29/1 270/30/1 271/31/1 268/32/1
f 270/29/1 272/30/1 273/31/1 271/32/1
f 272/29/1 274/30/1 275/31/1 273/32/1
f 274/29/1 276/30/1 277/31/1 275/32/1
f 276/29/1 278/30/1 279/31/1 277/32/1
f 278/29/1 280/30/1 281/31/1 279/32/1
f 280/29/1 282/30/1 283/31/1 281/32/1
f 282/29/1 284/30/1 285/31/1 283/32/1
f 284/29/1 286/30/1 287/31/1 285/32/1
f 286/29/1 288/30/1 289/31/1 287/32/1
f 288/29/1 290/30/1 291/31/1 289/32/1
f 290/29/1 78/30/1 292/31/1 291/32/1
f 78/66/1 19/65/1 252/68/1 292/67/1
f 19/25/1 18/26/1 253/27/1 252/28/1
f 293/11/1 294/12/1 295/9/1 259/10/1
f 296/25/1 297/26/1 262/27/1 261/28/1
f 298/25/1 299/26/1 264/27/1 263/28/1
f 300/25/1 13/26/1 10/27/1 265/28/1
f 301/5/1 302/6/1 294/7/1 293/8/1
f 303/25/1 304/26/1 297/27/1 296/28/1
f 305/25/1 306/26/1 299/27/1 298/28/1
f 307/25/1 20/26/1 13/27/1 300/28/1
f 308/11/1 309/12/1 310/9/1 302/10/1
f 311/25/1 312/26/1 304/27/1 303/28/1
f 313/25/1 314/26/1 306/27/1 305/28/1
f 315/25/1 23/26/1 20/27/1 307/28/1
f 316/25/1 317/26/1 309/27/1 308/28/1
f 318/25/1 319/26/1 312/27/1 311/28/1
f 320/5/1 321/6/1 314/7/1 313/8/1
f 322/25/1 26/26/1 23/27/1 315/28/1
f 323/25/1 324/26/1 317/27/1 316/28/1
f 325/25/1 326/26/1 319/27/1 318/28/1
f 327/25/1 29/26/1 26/27/1 322/28/1
f 328/25/1 329/26/1 324/27/1 323/28/1
f 330/5/1 331/6/1 326/7/1 325/8/1
f 332/25/1 36/26/1 29/27/1 327/28/1
f 333/25/1 334/26/1 329/27/1 328/28/1
f 335/7/1 336/8/1 337/5/1 331/6/1
f 338/25/1 39/26/1 36/27/1 332/28/1
f 339/25/1 340/26/1 334/27/1 333/28/1
f 341/25/1 342/26/1 336/27/1 335/28/1
f 343/25/1 42/26/1 39/27/1 338/28/1
f 344/25/1 345/26/1 340/27/1 339/28/1
f 346/5/1 97/6/1 342/7/1 341/8/1
f 97/69/1 96/70/1 347/71/1 342/72/1
f 348/25/1 45/26/1 42/27/1 343/28/1
f 349/25/1 350/26/1 345/27/1 344/28/1
f 94/7/1 95/8/1 96/5/1 97/6/1
f 351/25/1 48/26/1 45/27/1 348/28/1
f 352/5/1 353/6/1 350/7/1 349/8/1
f 354/25/1 355/26/1 95/27/1 94/28/1
f 356/25/1 51/26/1 48/27/1 351/28/1
f 101/25/1 100/26/1 355/27/1 354/28/1
f 357/25/1 54/26/1 51/27/1 356/28/1
f 180/73/1 198/74/1 199/75/1 136/76/1
f 198/77/1 358/78/1 359/79/1 199/80/1
f 358/77/1 360/78/1 361/79/1 359/80/1
f 360/77/1 362/78/1 363/79/1 361/80/1
f 362/77/1 98/78/1 101/79/1 363/80/1
f 98/25/1 99/26/1 100/27/1 101/28/1
f 364/25/1 57/26/1 54/27/1 357/28/1
f 179/81/1 200/82/1 198/83/1 180/84/1
f 200/1/1 365/2/1 358/3/1 198/4/1
f 365/1/1 366/2/1 360/3/1 358/4/1
f 366/1/1 367/2/1 362/3/1 360/4/1
f 367/1/1 102/2/1 98/3/1 362/4/1
f 102/25/1 103/26/1 99/27/1 98/28/1
f 103/69/1 368/70/1 364/71/1 99/72/1
f 368/25/1 60/26/1 57/27/1 364/28/1

