# Wavefront OBJ file automatically generated by Tiled2Unity

# Vertices (Count = 369)
v -11 -4 0
v -12 -4 0
v -12 -3 0
v -11 -3 0
v -9 -13 0
v -10 -13 0
v -10 -12 0
v -9 -12 0
v -11 -13 0
v -11 -12 0
v -12 -13 0
v -12 -12 0
v -17 -13 0
v -18 -13 0
v -18 -12 0
v -17 -12 0
v -19 -13 0
v -19 -12 0
v -20 -13 0
v -20 -12 0
v -21 -13 0
v -21 -12 0
v -22 -13 0
v -22 -12 0
v -23 -13 0
v -23 -12 0
v -24 -13 0
v -24 -12 0
v -25 -13 0
v -25 -12 0
v -26 -13 0
v -26 -12 0
v -9 -14 0
v -10 -14 0
v -11 -14 0
v -12 -14 0
v -14 -14 0
v -15 -14 0
v -15 -13 0
v -14 -13 0
v -15 -16 0
v -16 -16 0
v -16 -15 0
v -15 -15 0
v -17 -16 0
v -17 -15 0
v -18 -16 0
v -18 -15 0
v -14 -17 0
v -15 -17 0
v -14 -16 0
v -16 -17 0
v -17 -17 0
v -18 -17 0
v -16 -18 0
v -17 -18 0
v -18 -18 0
v -19 -18 0
v -20 -18 0
v -20 -17 0
v -19 -17 0
v -21 -18 0
v -21 -17 0
v -9 -19 0
v -10 -19 0
v -10 -18 0
v -9 -18 0
v -11 -19 0
v -11 -18 0
v -16 -19 0
v -17 -19 0
v -9 -20 0
v -10 -20 0
v -11 -20 0
v -12 -20 0
v -12 -19 0
v -16 -20 0
v -17 -20 0
v -18 -20 0
v -18 -19 0
v -19 -20 0
v -19 -19 0
v -20 -20 0
v -20 -19 0
v -21 -20 0
v -21 -19 0
v -22 -20 0
v -22 -19 0
v -23 -20 0
v -23 -19 0
v -24 -20 0
v -24 -19 0
v -25 -20 0
v -25 -19 0
v -26 -20 0
v -26 -19 0
v -24 -9 0
v -25 -9 0
v -25 -8 0
v -24 -8 0
v -19 -16 0
v -19 -15 0
v -6 -14 0
v -7 -14 0
v -7 -13 0
v -6 -13 0
v -8 -14 0
v -8 -13 0
v -13 -15 0
v -14 -15 0
v -13 -14 0
v -13 -17 0
v -13 -16 0
v -26 -1 0
v -27 -1 0
v -27 0 0
v -26 0 0
v -28 -1 0
v -28 0 0
v -29 -1 0
v -29 0 0
v -30 -1 0
v -30 0 0
v -26 -2 0
v -27 -2 0
v -28 -2 0
v -29 -2 0
v -30 -2 0
v -26 -3 0
v -27 -3 0
v -28 -3 0
v -29 -3 0
v -30 -3 0
v -5 -4 0
v -6 -4 0
v -6 -3 0
v -5 -3 0
v -26 -4 0
v -27 -4 0
v -28 -4 0
v -29 -4 0
v -30 -4 0
v -5 -5 0
v -6 -5 0
v -26 -5 0
v -27 -5 0
v -28 -5 0
v -29 -5 0
v -30 -5 0
v -6 -6 0
v -7 -6 0
v -7 -5 0
v -8 -6 0
v -8 -5 0
v -9 -6 0
v -9 -5 0
v -10 -6 0
v -10 -5 0
v -11 -6 0
v -11 -5 0
v -22 -6 0
v -23 -6 0
v -23 -5 0
v -22 -5 0
v -24 -6 0
v -24 -5 0
v -25 -6 0
v -25 -5 0
v -26 -6 0
v -27 -6 0
v -28 -6 0
v -29 -6 0
v -30 -6 0
v -5 -7 0
v -6 -7 0
v -5 -6 0
v -7 -7 0
v -8 -7 0
v -9 -7 0
v -11 -7 0
v -12 -7 0
v -12 -6 0
v -21 -7 0
v -22 -7 0
v -21 -6 0
v -26 -7 0
v -27 -7 0
v -28 -7 0
v -29 -7 0
v -30 -7 0
v -5 -8 0
v -6 -8 0
v -7 -8 0
v -8 -8 0
v -13 -8 0
v -14 -8 0
v -14 -7 0
v -13 -7 0
v -15 -8 0
v -15 -7 0
v -16 -8 0
v -16 -7 0
v -19 -8 0
v -20 -8 0
v -20 -7 0
v -19 -7 0
v -26 -8 0
v -25 -7 0
v -2 -9 0
v -3 -9 0
v -3 -8 0
v -2 -8 0
v -4 -9 0
v -4 -8 0
v -5 -9 0
v -6 -9 0
v -7 -9 0
v -8 -9 0
v -17 -9 0
v -18 -9 0
v -18 -8 0
v -17 -8 0
v -19 -9 0
v -20 -9 0
v -21 -9 0
v -21 -8 0
v -22 -9 0
v -22 -8 0
v -23 -9 0
v -23 -8 0
v -26 -10 0
v -27 -10 0
v -27 -9 0
v -26 -9 0
v -28 -10 0
v -28 -9 0
v -29 -10 0
v -29 -9 0
v -30 -10 0
v -30 -9 0
v -18 -11 0
v -19 -11 0
v -19 -10 0
v -18 -10 0
v -26 -11 0
v -27 -11 0
v -28 -11 0
v -29 -11 0
v -30 -11 0
v 0 -12 0
v -1 -12 0
v -1 -11 0
v 0 -11 0
v -2 -12 0
v -2 -11 0
v -25 -11 0
v -27 -12 0
v -28 -12 0
v -29 -12 0
v -30 -12 0
v -27 -13 0
v -28 -13 0
v -29 -13 0
v -30 -13 0
v -5 -14 0
v -5 -13 0
v -25 -14 0
v -26 -14 0
v -27 -14 0
v -28 -14 0
v -29 -14 0
v -30 -14 0
v -8 -15 0
v -9 -15 0
v -11 -15 0
v -12 -15 0
v -26 -15 0
v -27 -15 0
v -28 -15 0
v -29 -15 0
v -30 -15 0
v 0 -16 0
v -1 -16 0
v -1 -15 0
v 0 -15 0
v -2 -16 0
v -2 -15 0
v -8 -16 0
v -9 -16 0
v -26 -16 0
v -27 -16 0
v -28 -16 0
v -29 -16 0
v -30 -16 0
v -1 -17 0
v -2 -17 0
v -8 -17 0
v -9 -17 0
v -26 -17 0
v -27 -17 0
v -28 -17 0
v -29 -17 0
v -30 -17 0
v 0 -18 0
v -1 -18 0
v 0 -17 0
v -6 -18 0
v -7 -18 0
v -7 -17 0
v -6 -17 0
v -8 -18 0
v -26 -18 0
v -27 -18 0
v -28 -18 0
v -29 -18 0
v -30 -18 0
v 0 -19 0
v -1 -19 0
v -12 -18 0
v -27 -19 0
v -28 -19 0
v -29 -19 0
v -30 -19 0
v -1 -20 0
v -2 -20 0
v -2 -19 0
v -3 -20 0
v -3 -19 0
v -4 -20 0
v -4 -19 0
v -5 -20 0
v -5 -19 0
v -6 -20 0
v -6 -19 0
v -7 -20 0
v -7 -19 0
v -8 -20 0
v -8 -19 0
v -13 -20 0
v -13 -19 0
v -14 -20 0
v -14 -19 0
v -15 -20 0
v -15 -19 0
v -27 -20 0
v -28 -20 0
v -29 -20 0
v -30 -20 0
v -10 -7 0
v -9 -8 0
v -10 -8 0
v -24 -7 0
v -9 -9 0
v -12 -16 0
v -12 -17 0
v -4 -14 0
v -4 -13 0
v -3 -16 0
v -3 -15 0
v -3 -17 0
v -4 -17 0
v -5 -17 0
v -5 -16 0
v -4 -16 0
v -6 -16 0
v -11 -17 0
v -11 -16 0
v -4 -15 0
v 0 -20 0

# Texture cooridinates (Count = 126)
vt 0.9155967 0.6026065
vt 0.9985775 0.6026065
vt 0.9985775 0.8011202
vt 0.9155967 0.8011202
vt 0.0831029 0.4036046
vt 0.0001220703 0.4036046
vt 0.0001220703 0.205091
vt 0.0831029 0.205091
vt 0.08334704 0.8013643
vt 0.1663279 0.8013643
vt 0.1663279 0.9998779
vt 0.08334704 0.9998779
vt 0.2495528 0.6023624
vt 0.166572 0.6023624
vt 0.166572 0.4038488
vt 0.2495528 0.4038488
vt 0.3327778 0.9998779
vt 0.249797 0.9998779
vt 0.249797 0.8013643
vt 0.3327778 0.8013643
vt 0.8321276 0.8013643
vt 0.8321276 0.6023624
vt 0.9155967 0.6023624
vt 0.9155967 0.8013643
vt 0.5826969 0.8013643
vt 0.6656777 0.8013643
vt 0.6656777 0.9998779
vt 0.5826969 0.9998779
vt 0.8323718 0.6026065
vt 0.9153526 0.6026065
vt 0.9153526 0.8011202
vt 0.8323718 0.8011202
vt 0.166572 0.8013643
vt 0.2495528 0.8013643
vt 0.2495528 0.9998779
vt 0.166572 0.9998779
vt 0.4994719 0.8013643
vt 0.5824527 0.8013643
vt 0.5824527 0.9998779
vt 0.4994719 0.9998779
vt 0.9153526 0.9998779
vt 0.8323718 0.9998779
vt 0.8323718 0.8013643
vt 0.9153526 0.8013643
vt 0.6659218 0.4038488
vt 0.7489026 0.4038488
vt 0.7489026 0.6023624
vt 0.6659218 0.6023624
vt 0.7491468 0.8013643
vt 0.8321276 0.9998779
vt 0.7491468 0.9998779
vt -0.0001220703 1.000122
vt -0.0001220703 0.8011202
vt 0.08334704 0.8011202
vt 0.08334704 1.000122
vt 0.0831029 0.9998779
vt 0.0001220703 0.9998779
vt 0.0001220703 0.8013643
vt 0.0831029 0.8013643
vt 0.7489026 0.8013643
vt 0.8323718 0.6023624
vt 0.4992277 0.205091
vt 0.4992277 0.006089091
vt 0.5826969 0.006089091
vt 0.5826969 0.205091
vt 0.7489026 1.000122
vt 0.7489026 0.8011202
vt 0.8323718 1.000122
vt 0.0001220703 0.4038488
vt 0.0831029 0.4038488
vt 0.0831029 0.6023624
vt 0.0001220703 0.6023624
vt 0.3330219 0.8011202
vt 0.3330219 1.000122
vt 0.2495528 1.000122
vt 0.2495528 0.8011202
vt 0.08334704 0.4036046
vt 0.08334704 0.6026065
vt -0.0001220703 0.6026065
vt -0.0001220703 0.4036046
vt 0.9988217 0.6023624
vt 0.9988217 0.8013643
vt 0.9153526 0.6023624
vt 0.7489026 0.4036046
vt 0.6659218 0.4036046
vt 0.6659218 0.205091
vt 0.7489026 0.205091
vt 0.5826969 0.2048469
vt 0.5826969 0.4038488
vt 0.4992277 0.4038488
vt 0.4992277 0.2048469
vt 0.4162469 0.8011202
vt 0.4162469 1.000122
vt 0.3327778 1.000122
vt 0.3327778 0.8011202
vt 0.6659218 0.8011202
vt 0.6659218 0.6026065
vt 0.7489026 0.6026065
vt 0.8321276 0.8011202
vt 0.7491468 0.8011202
vt 0.7491468 0.6026065
vt 0.8321276 0.6026065
vt 0.166572 0.8011202
vt 0.166572 1.000122
vt 0.0831029 1.000122
vt 0.0831029 0.8011202
vt 0.9155967 0.4038488
vt 0.9985775 0.4038488
vt 0.9985775 0.6023624
vt 0.9155967 0.006333232
vt 0.9985775 0.006333232
vt 0.9985775 0.2048469
vt 0.9155967 0.2048469
vt 0.7491468 0.4036046
vt 0.6656777 0.6026065
vt 0.6656777 0.4036046
vt 0.3330219 0.8013643
vt 0.4160028 0.8013643
vt 0.4160028 0.9998779
vt 0.3330219 0.9998779
vt 0.9155967 1.000122
vt 0.8321276 1.000122
vt 0.4994719 0.006333232
vt 0.5824527 0.006333232
vt 0.5824527 0.2048469
vt 0.4994719 0.2048469

# Normal
vn 0 0 -1

# Groups (Count = 2)

g mesh_0001
f 1/1/1 2/2/1 3/3/1 4/4/1
f 5/5/1 6/6/1 7/7/1 8/8/1
f 6/5/1 9/6/1 10/7/1 7/8/1
f 9/5/1 11/6/1 12/7/1 10/8/1
f 13/9/1 14/10/1 15/11/1 16/12/1
f 14/9/1 17/10/1 18/11/1 15/12/1
f 17/9/1 19/10/1 20/11/1 18/12/1
f 19/9/1 21/10/1 22/11/1 20/12/1
f 21/9/1 23/10/1 24/11/1 22/12/1
f 23/9/1 25/10/1 26/11/1 24/12/1
f 25/9/1 27/10/1 28/11/1 26/12/1
f 27/9/1 29/10/1 30/11/1 28/12/1
f 29/9/1 31/10/1 32/11/1 30/12/1
f 33/13/1 34/14/1 6/15/1 5/16/1
f 34/13/1 35/14/1 9/15/1 6/16/1
f 35/13/1 36/14/1 11/15/1 9/16/1
f 37/17/1 38/18/1 39/19/1 40/20/1
f 41/9/1 42/10/1 43/11/1 44/12/1
f 42/9/1 45/10/1 46/11/1 43/12/1
f 45/9/1 47/10/1 48/11/1 46/12/1
f 49/21/1 50/22/1 41/23/1 51/24/1
f 50/21/1 52/22/1 42/23/1 41/24/1
f 53/25/1 54/26/1 47/27/1 45/28/1
f 55/29/1 56/30/1 53/31/1 52/32/1
f 56/33/1 57/34/1 54/35/1 53/36/1
f 58/9/1 59/10/1 60/11/1 61/12/1
f 59/9/1 62/10/1 63/11/1 60/12/1
f 64/9/1 65/10/1 66/11/1 67/12/1
f 65/9/1 68/10/1 69/11/1 66/12/1
f 70/29/1 71/30/1 56/31/1 55/32/1
f 72/37/1 73/38/1 65/39/1 64/40/1
f 73/25/1 74/26/1 68/27/1 65/28/1
f 74/9/1 75/10/1 76/11/1 68/12/1
f 77/29/1 78/30/1 71/31/1 70/32/1
f 78/15/1 79/16/1 80/13/1 71/14/1
f 79/15/1 81/16/1 82/13/1 80/14/1
f 81/15/1 83/16/1 84/13/1 82/14/1
f 83/15/1 85/16/1 86/13/1 84/14/1
f 85/9/1 87/10/1 88/11/1 86/12/1
f 87/9/1 89/10/1 90/11/1 88/12/1
f 89/9/1 91/10/1 92/11/1 90/12/1
f 91/9/1 93/10/1 94/11/1 92/12/1
f 93/9/1 95/10/1 96/11/1 94/12/1

g mesh_0002
f 97/41/1 98/42/1 99/43/1 100/44/1
f 47/45/1 101/46/1 102/47/1 48/48/1
f 57/49/1 58/21/1 61/50/1 54/51/1

g mesh_0003
f 103/1/1 104/2/1 105/3/1 106/4/1
f 104/1/1 107/2/1 108/3/1 105/4/1
f 109/52/1 110/53/1 37/54/1 111/55/1
f 112/56/1 49/57/1 51/58/1 113/59/1
f 54/60/1 61/47/1 101/61/1 47/43/1

g mesh_0004
f 110/62/1 44/63/1 38/64/1 37/65/1
f 113/66/1 51/67/1 110/32/1 109/68/1
f 51/49/1 41/21/1 44/50/1 110/51/1
f 52/50/1 53/51/1 45/49/1 42/21/1

g mesh_0005
f 114/61/1 115/43/1 116/60/1 117/47/1
f 115/33/1 118/34/1 119/35/1 116/36/1
f 118/33/1 120/34/1 121/35/1 119/36/1
f 120/25/1 122/26/1 123/27/1 121/28/1
f 124/61/1 125/43/1 115/60/1 114/47/1
f 125/25/1 126/26/1 118/27/1 115/28/1
f 126/33/1 127/34/1 120/35/1 118/36/1
f 127/25/1 128/26/1 122/27/1 120/28/1
f 129/61/1 130/43/1 125/60/1 124/47/1
f 130/33/1 131/34/1 126/35/1 125/36/1
f 131/25/1 132/26/1 127/27/1 126/28/1
f 132/25/1 133/26/1 128/27/1 127/28/1
f 134/17/1 135/18/1 136/19/1 137/20/1
f 138/61/1 139/43/1 130/60/1 129/47/1
f 139/33/1 140/34/1 131/35/1 130/36/1
f 140/33/1 141/34/1 132/35/1 131/36/1
f 141/33/1 142/34/1 133/35/1 132/36/1
f 143/69/1 144/70/1 135/71/1 134/72/1
f 145/61/1 146/43/1 139/60/1 138/47/1
f 146/25/1 147/26/1 140/27/1 139/28/1
f 147/37/1 148/38/1 141/39/1 140/40/1
f 148/25/1 149/26/1 142/27/1 141/28/1
f 150/9/1 151/10/1 152/11/1 144/12/1
f 151/9/1 153/10/1 154/11/1 152/12/1
f 153/9/1 155/10/1 156/11/1 154/12/1
f 155/9/1 157/10/1 158/11/1 156/12/1
f 157/9/1 159/10/1 160/11/1 158/12/1
f 161/73/1 162/74/1 163/75/1 164/76/1
f 162/77/1 165/78/1 166/79/1 163/80/1
f 165/77/1 167/78/1 168/79/1 166/80/1
f 167/75/1 169/76/1 145/73/1 168/74/1
f 169/61/1 170/43/1 146/60/1 145/47/1
f 170/33/1 171/34/1 147/35/1 146/36/1
f 171/33/1 172/34/1 148/35/1 147/36/1
f 172/33/1 173/34/1 149/35/1 148/36/1
f 174/29/1 175/30/1 150/31/1 176/32/1
f 175/25/1 177/26/1 151/27/1 150/28/1
f 177/37/1 178/38/1 153/39/1 151/40/1
f 178/25/1 179/26/1 155/27/1 153/28/1
f 180/81/1 181/82/1 182/44/1 159/83/1
f 183/1/1 184/2/1 161/3/1 185/4/1
f 186/61/1 187/43/1 170/60/1 169/47/1
f 187/25/1 188/26/1 171/27/1 170/28/1
f 188/33/1 189/34/1 172/35/1 171/36/1
f 189/33/1 190/34/1 173/35/1 172/36/1
f 191/29/1 192/30/1 175/31/1 174/32/1
f 192/37/1 193/38/1 177/39/1 175/40/1
f 193/33/1 194/34/1 178/35/1 177/36/1
f 195/73/1 196/74/1 197/75/1 198/76/1
f 196/77/1 199/78/1 200/79/1 197/80/1
f 199/75/1 201/76/1 202/73/1 200/74/1
f 203/81/1 204/82/1 205/44/1 206/83/1
f 99/75/1 207/76/1 186/73/1 208/74/1
f 209/84/1 210/85/1 211/86/1 212/87/1
f 210/77/1 213/78/1 214/79/1 211/80/1
f 213/77/1 215/78/1 191/79/1 214/80/1
f 216/88/1 217/89/1 193/90/1 192/91/1
f 217/88/1 218/89/1 194/90/1 193/91/1
f 219/81/1 220/82/1 221/44/1 222/83/1
f 223/84/1 224/85/1 204/86/1 203/87/1
f 224/77/1 225/78/1 226/79/1 204/80/1
f 225/77/1 227/78/1 228/79/1 226/80/1
f 227/77/1 229/78/1 230/79/1 228/80/1
f 229/77/1 97/78/1 100/79/1 230/80/1
f 231/61/1 232/43/1 233/60/1 234/47/1
f 232/37/1 235/38/1 236/39/1 233/40/1
f 235/25/1 237/26/1 238/27/1 236/28/1
f 237/37/1 239/38/1 240/39/1 238/40/1
f 241/81/1 242/82/1 243/44/1 244/83/1
f 245/61/1 246/43/1 232/60/1 231/47/1
f 246/33/1 247/34/1 235/35/1 232/36/1
f 247/33/1 248/34/1 237/35/1 235/36/1
f 248/37/1 249/38/1 239/39/1 237/40/1
f 250/77/1 251/78/1 252/79/1 253/80/1
f 251/92/1 254/93/1 255/94/1 252/95/1
f 30/67/1 32/96/1 245/97/1 256/98/1
f 32/37/1 257/38/1 246/39/1 245/40/1
f 257/25/1 258/26/1 247/27/1 246/28/1
f 258/33/1 259/34/1 248/35/1 247/36/1
f 259/25/1 260/26/1 249/27/1 248/28/1
f 5/73/1 6/74/1 7/75/1 8/76/1
f 6/79/1 9/80/1 10/77/1 7/78/1
f 9/75/1 11/76/1 12/73/1 10/74/1
f 29/25/1 31/26/1 32/27/1 30/28/1
f 31/33/1 261/34/1 257/35/1 32/36/1
f 261/33/1 262/34/1 258/35/1 257/36/1
f 262/25/1 263/26/1 259/27/1 258/28/1
f 263/33/1 264/34/1 260/35/1 259/36/1
f 265/77/1 103/78/1 106/79/1 266/80/1
f 103/77/1 104/78/1 105/79/1 106/80/1
f 104/77/1 107/78/1 108/79/1 105/80/1
f 267/56/1 268/57/1 31/58/1 29/59/1
f 268/37/1 269/38/1 261/39/1 31/40/1
f 269/37/1 270/38/1 262/39/1 261/40/1
f 270/33/1 271/34/1 263/35/1 262/36/1
f 271/33/1 272/34/1 264/35/1 263/36/1
f 273/69/1 274/70/1 33/71/1 107/72/1
f 275/7/1 276/8/1 36/5/1 35/6/1
f 276/7/1 109/8/1 111/5/1 36/6/1
f 277/61/1 278/43/1 269/60/1 268/47/1
f 278/33/1 279/34/1 270/35/1 269/36/1
f 279/33/1 280/34/1 271/35/1 270/36/1
f 280/25/1 281/26/1 272/27/1 271/28/1
f 282/99/1 283/100/1 284/101/1 285/102/1
f 283/99/1 286/100/1 287/101/1 284/102/1
f 288/69/1 289/70/1 274/71/1 273/72/1
f 290/61/1 291/43/1 278/60/1 277/47/1
f 291/37/1 292/38/1 279/39/1 278/40/1
f 292/37/1 293/38/1 280/39/1 279/40/1
f 293/37/1 294/38/1 281/39/1 280/40/1
f 295/21/1 296/22/1 286/23/1 283/24/1
f 297/69/1 298/70/1 289/71/1 288/72/1
f 112/56/1 49/57/1 51/58/1 113/59/1
f 299/61/1 300/43/1 291/60/1 290/47/1
f 300/33/1 301/34/1 292/35/1 291/36/1
f 301/33/1 302/34/1 293/35/1 292/36/1
f 302/33/1 303/34/1 294/35/1 293/36/1
f 304/103/1 305/104/1 295/105/1 306/106/1
f 307/81/1 308/82/1 309/44/1 310/83/1
f 311/69/1 67/70/1 298/71/1 297/72/1
f 312/61/1 313/43/1 300/60/1 299/47/1
f 313/33/1 314/34/1 301/35/1 300/36/1
f 314/33/1 315/34/1 302/35/1 301/36/1
f 315/25/1 316/26/1 303/27/1 302/28/1
f 317/103/1 318/104/1 305/105/1 304/106/1
f 68/58/1 76/59/1 319/56/1 69/57/1
f 96/61/1 320/43/1 313/60/1 312/47/1
f 320/33/1 321/34/1 314/35/1 313/36/1
f 321/33/1 322/34/1 315/35/1 314/36/1
f 322/33/1 323/34/1 316/35/1 315/36/1
f 324/90/1 325/91/1 326/88/1 318/89/1
f 325/90/1 327/91/1 328/88/1 326/89/1
f 327/90/1 329/91/1 330/88/1 328/89/1
f 329/90/1 331/91/1 332/88/1 330/89/1
f 331/90/1 333/91/1 334/88/1 332/89/1
f 333/90/1 335/91/1 336/88/1 334/89/1
f 335/90/1 337/91/1 338/88/1 336/89/1
f 75/9/1 339/10/1 340/11/1 76/12/1
f 339/9/1 341/10/1 342/11/1 340/12/1
f 341/9/1 343/10/1 344/11/1 342/12/1
f 343/9/1 77/10/1 70/11/1 344/12/1
f 345/37/1 346/38/1 321/39/1 320/40/1
f 346/33/1 347/34/1 322/35/1 321/36/1
f 347/37/1 348/38/1 323/39/1 322/40/1

g mesh_0006
f 176/107/1 150/108/1 144/109/1 143/23/1
f 215/110/1 216/111/1 192/112/1 191/113/1
f 338/107/1 64/108/1 67/109/1 311/23/1

g mesh_0007
f 179/32/1 349/68/1 157/66/1 155/67/1
f 349/114/1 180/101/1 159/115/1 157/116/1
f 194/32/1 350/68/1 179/66/1 178/67/1
f 350/114/1 351/101/1 349/115/1 179/116/1
f 100/43/1 99/44/1 208/41/1 352/42/1
f 218/114/1 353/101/1 350/115/1 194/116/1
f 109/43/1 110/44/1 37/41/1 111/42/1
f 354/43/1 113/44/1 109/41/1 276/42/1
f 113/41/1 51/42/1 110/43/1 109/44/1
f 47/45/1 101/46/1 102/47/1 48/48/1
f 355/41/1 112/42/1 113/43/1 354/44/1
f 74/49/1 75/21/1 76/50/1 68/51/1
f 95/66/1 345/67/1 320/32/1 96/68/1

g mesh_0008
f 356/94/1 265/95/1 266/92/1 357/93/1
f 37/117/1 38/118/1 39/119/1 40/120/1
f 286/99/1 358/100/1 359/101/1 287/102/1
f 296/101/1 360/102/1 358/99/1 286/100/1
f 361/77/1 362/78/1 363/79/1 364/80/1
f 362/92/1 310/93/1 365/94/1 363/95/1
f 366/73/1 355/74/1 354/75/1 367/76/1

g mesh_0009
f 107/4/1 33/121/1 5/122/1 108/99/1
f 110/41/1 44/42/1 38/43/1 37/44/1
f 358/45/1 364/46/1 368/47/1 359/48/1
f 306/32/1 295/68/1 283/66/1 282/67/1
f 360/123/1 361/124/1 364/125/1 358/126/1
f 369/49/1 324/21/1 318/50/1 317/51/1
f 337/66/1 72/67/1 64/32/1 338/68/1

